<?xml version="1.0" standalone="no"?>
<!DOCTYPE svg PUBLIC "-//W3C//DTD SVG 20010904//EN"
 "http://www.w3.org/TR/2001/REC-SVG-20010904/DTD/svg10.dtd">
<svg version="1.0" xmlns="http://www.w3.org/2000/svg"
 width="192.000000pt" height="192.000000pt" viewBox="0 0 192.000000 192.000000"
 preserveAspectRatio="xMidYMid meet">

<g transform="translate(0.000000,192.000000) scale(0.100000,-0.100000)"
fill="#000000" stroke="none">
<path d="M825 1844 c-414 -64 -720 -381 -767 -795 -40 -357 162 -725 487 -886
127 -64 255 -93 402 -93 416 0 771 286 868 700 19 84 20 277 0 369 -68 325
-307 581 -632 677 -68 20 -116 26 -208 29 -66 2 -133 1 -150 -1z m283 -100
c403 -83 685 -475 633 -881 -43 -338 -295 -616 -624 -688 -96 -21 -300 -16
-390 9 -211 59 -406 223 -502 421 -66 137 -79 196 -79 360 0 130 3 147 32 235
93 281 315 482 602 546 79 17 238 17 328 -2z"/>
<path d="M823 1680 c-381 -69 -650 -428 -603 -808 30 -238 180 -455 390 -562
114 -58 192 -75 340 -75 125 1 141 3 223 32 123 43 189 85 287 183 72 71 93
100 132 180 56 115 78 208 78 333 0 218 -98 424 -265 560 -71 57 -196 121
-280 142 -75 19 -233 27 -302 15z m288 -510 c4 -3 85 -16 179 -30 93 -13 170
-27 170 -31 0 -4 -57 -61 -127 -127 l-127 -119 28 -167 c15 -91 26 -172 24
-179 -2 -9 -51 12 -158 69 l-155 82 -164 -85 c-162 -85 -163 -86 -157 -57 3
16 17 96 31 178 l26 149 -125 126 c-69 70 -126 129 -126 132 0 4 77 17 170 30
94 12 174 25 178 28 5 4 43 78 86 166 l78 160 80 -160 c44 -88 84 -162 89
-165z"/>
</g>
</svg>
